<svg height="1982" width="720" xmlns="http://www.w3.org/2000/svg">
<rect height="1982" fill="#555" width="720"></rect>
<text fill="#7f7" font-family="Courier New" font-size="12" xml:space="preserve">
<tspan x="10" y="26">47 megabytes installed</tspan>
<tspan x="10" y="42"></tspan>
<tspan x="10" y="58">node_modules</tspan>
<tspan x="10" y="74">└─┬ hummus@1.0.75 </tspan>
<tspan x="10" y="90">  └─┬ node-pre-gyp@0.6.29 </tspan>
<tspan x="10" y="106">    ├─┬ mkdirp@0.5.1 </tspan>
<tspan x="10" y="122">    │ └── minimist@0.0.8 </tspan>
<tspan x="10" y="138">    ├─┬ nopt@3.0.6 </tspan>
<tspan x="10" y="154">    │ └── abbrev@1.0.9 </tspan>
<tspan x="10" y="170">    ├─┬ npmlog@3.1.2 </tspan>
<tspan x="10" y="186">    │ ├─┬ are-we-there-yet@1.1.2 </tspan>
<tspan x="10" y="202">    │ │ └── delegates@1.0.0 </tspan>
<tspan x="10" y="218">    │ ├── console-control-strings@1.1.0 </tspan>
<tspan x="10" y="234">    │ ├─┬ gauge@2.6.0 </tspan>
<tspan x="10" y="250">    │ │ ├── aproba@1.0.4 </tspan>
<tspan x="10" y="266">    │ │ ├── has-color@0.1.7 </tspan>
<tspan x="10" y="282">    │ │ ├── has-unicode@2.0.1 </tspan>
<tspan x="10" y="298">    │ │ ├── object-assign@4.1.0 </tspan>
<tspan x="10" y="314">    │ │ ├── signal-exit@3.0.0 </tspan>
<tspan x="10" y="330">    │ │ ├─┬ string-width@1.0.1 </tspan>
<tspan x="10" y="346">    │ │ │ ├─┬ code-point-at@1.0.0 </tspan>
<tspan x="10" y="362">    │ │ │ │ └── number-is-nan@1.0.0 </tspan>
<tspan x="10" y="378">    │ │ │ └── is-fullwidth-code-point@1.0.0 </tspan>
<tspan x="10" y="394">    │ │ ├─┬ strip-ansi@3.0.1 </tspan>
<tspan x="10" y="410">    │ │ │ └── ansi-regex@2.0.0 </tspan>
<tspan x="10" y="426">    │ │ └── wide-align@1.1.0 </tspan>
<tspan x="10" y="442">    │ └── set-blocking@2.0.0 </tspan>
<tspan x="10" y="458">    ├─┬ rc@1.1.6 </tspan>
<tspan x="10" y="474">    │ ├── deep-extend@0.4.1 </tspan>
<tspan x="10" y="490">    │ ├── ini@1.3.4 </tspan>
<tspan x="10" y="506">    │ ├── minimist@1.2.0 </tspan>
<tspan x="10" y="522">    │ └── strip-json-comments@1.0.4 </tspan>
<tspan x="10" y="538">    ├─┬ request@2.73.0 </tspan>
<tspan x="10" y="554">    │ ├── aws-sign2@0.6.0 </tspan>
<tspan x="10" y="570">    │ ├── aws4@1.4.1 </tspan>
<tspan x="10" y="586">    │ ├─┬ bl@1.1.2 </tspan>
<tspan x="10" y="602">    │ │ └── readable-stream@2.0.6 </tspan>
<tspan x="10" y="618">    │ ├── caseless@0.11.0 </tspan>
<tspan x="10" y="634">    │ ├─┬ combined-stream@1.0.5 </tspan>
<tspan x="10" y="650">    │ │ └── delayed-stream@1.0.0 </tspan>
<tspan x="10" y="666">    │ ├── extend@3.0.0 </tspan>
<tspan x="10" y="682">    │ ├── forever-agent@0.6.1 </tspan>
<tspan x="10" y="698">    │ ├─┬ form-data@1.0.0-rc4 </tspan>
<tspan x="10" y="714">    │ │ └── async@1.5.2 </tspan>
<tspan x="10" y="730">    │ ├─┬ har-validator@2.0.6 </tspan>
<tspan x="10" y="746">    │ │ ├─┬ chalk@1.1.3 </tspan>
<tspan x="10" y="762">    │ │ │ ├── ansi-styles@2.2.1 </tspan>
<tspan x="10" y="778">    │ │ │ ├── escape-string-regexp@1.0.5 </tspan>
<tspan x="10" y="794">    │ │ │ ├── has-ansi@2.0.0 </tspan>
<tspan x="10" y="810">    │ │ │ └── supports-color@2.0.0 </tspan>
<tspan x="10" y="826">    │ │ ├─┬ commander@2.9.0 </tspan>
<tspan x="10" y="842">    │ │ │ └── graceful-readlink@1.0.1 </tspan>
<tspan x="10" y="858">    │ │ ├─┬ is-my-json-valid@2.13.1 </tspan>
<tspan x="10" y="874">    │ │ │ ├── generate-function@2.0.0 </tspan>
<tspan x="10" y="890">    │ │ │ ├─┬ generate-object-property@1.2.0 </tspan>
<tspan x="10" y="906">    │ │ │ │ └── is-property@1.0.2 </tspan>
<tspan x="10" y="922">    │ │ │ ├── jsonpointer@2.0.0 </tspan>
<tspan x="10" y="938">    │ │ │ └── xtend@4.0.1 </tspan>
<tspan x="10" y="954">    │ │ └─┬ pinkie-promise@2.0.1 </tspan>
<tspan x="10" y="970">    │ │   └── pinkie@2.0.4 </tspan>
<tspan x="10" y="986">    │ ├─┬ hawk@3.1.3 </tspan>
<tspan x="10" y="1002">    │ │ ├── boom@2.10.1 </tspan>
<tspan x="10" y="1018">    │ │ ├── cryptiles@2.0.5 </tspan>
<tspan x="10" y="1034">    │ │ ├── hoek@2.16.3 </tspan>
<tspan x="10" y="1050">    │ │ └── sntp@1.0.9 </tspan>
<tspan x="10" y="1066">    │ ├─┬ http-signature@1.1.1 </tspan>
<tspan x="10" y="1082">    │ │ ├── assert-plus@0.2.0 </tspan>
<tspan x="10" y="1098">    │ │ ├─┬ jsprim@1.3.0 </tspan>
<tspan x="10" y="1114">    │ │ │ ├── extsprintf@1.0.2 </tspan>
<tspan x="10" y="1130">    │ │ │ ├── json-schema@0.2.2 </tspan>
<tspan x="10" y="1146">    │ │ │ └── verror@1.3.6 </tspan>
<tspan x="10" y="1162">    │ │ └─┬ sshpk@1.8.3 </tspan>
<tspan x="10" y="1178">    │ │   ├── asn1@0.2.3 </tspan>
<tspan x="10" y="1194">    │ │   ├── assert-plus@1.0.0 </tspan>
<tspan x="10" y="1210">    │ │   ├─┬ dashdash@1.14.0 </tspan>
<tspan x="10" y="1226">    │ │   │ └── assert-plus@1.0.0 </tspan>
<tspan x="10" y="1242">    │ │   ├── ecc-jsbn@0.1.1 </tspan>
<tspan x="10" y="1258">    │ │   ├─┬ getpass@0.1.6 </tspan>
<tspan x="10" y="1274">    │ │   │ └── assert-plus@1.0.0 </tspan>
<tspan x="10" y="1290">    │ │   ├── jodid25519@1.0.2 </tspan>
<tspan x="10" y="1306">    │ │   ├── jsbn@0.1.0 </tspan>
<tspan x="10" y="1322">    │ │   └── tweetnacl@0.13.3 </tspan>
<tspan x="10" y="1338">    │ ├── is-typedarray@1.0.0 </tspan>
<tspan x="10" y="1354">    │ ├── isstream@0.1.2 </tspan>
<tspan x="10" y="1370">    │ ├── json-stringify-safe@5.0.1 </tspan>
<tspan x="10" y="1386">    │ ├─┬ mime-types@2.1.11 </tspan>
<tspan x="10" y="1402">    │ │ └── mime-db@1.23.0 </tspan>
<tspan x="10" y="1418">    │ ├── node-uuid@1.4.7 </tspan>
<tspan x="10" y="1434">    │ ├── oauth-sign@0.8.2 </tspan>
<tspan x="10" y="1450">    │ ├── qs@6.2.0 </tspan>
<tspan x="10" y="1466">    │ ├── stringstream@0.0.5 </tspan>
<tspan x="10" y="1482">    │ ├── tough-cookie@2.2.2 </tspan>
<tspan x="10" y="1498">    │ └── tunnel-agent@0.4.3 </tspan>
<tspan x="10" y="1514">    ├─┬ rimraf@2.5.3 </tspan>
<tspan x="10" y="1530">    │ └─┬ glob@7.0.5 </tspan>
<tspan x="10" y="1546">    │   ├── fs.realpath@1.0.0 </tspan>
<tspan x="10" y="1562">    │   ├── inflight@1.0.5 </tspan>
<tspan x="10" y="1578">    │   ├─┬ minimatch@3.0.2 </tspan>
<tspan x="10" y="1594">    │   │ └─┬ brace-expansion@1.1.5 </tspan>
<tspan x="10" y="1610">    │   │   ├── balanced-match@0.4.1 </tspan>
<tspan x="10" y="1626">    │   │   └── concat-map@0.0.1 </tspan>
<tspan x="10" y="1642">    │   └── path-is-absolute@1.0.0 </tspan>
<tspan x="10" y="1658">    ├── semver@5.2.0 </tspan>
<tspan x="10" y="1674">    ├─┬ tar@2.2.1 </tspan>
<tspan x="10" y="1690">    │ ├── block-stream@0.0.9 </tspan>
<tspan x="10" y="1706">    │ ├─┬ fstream@1.0.10 </tspan>
<tspan x="10" y="1722">    │ │ └── graceful-fs@4.1.4 </tspan>
<tspan x="10" y="1738">    │ └── inherits@2.0.1 </tspan>
<tspan x="10" y="1754">    └─┬ tar-pack@3.1.4 </tspan>
<tspan x="10" y="1770">      ├─┬ debug@2.2.0 </tspan>
<tspan x="10" y="1786">      │ └── ms@0.7.1 </tspan>
<tspan x="10" y="1802">      ├── fstream-ignore@1.0.5 </tspan>
<tspan x="10" y="1818">      ├─┬ once@1.3.3 </tspan>
<tspan x="10" y="1834">      │ └── wrappy@1.0.2 </tspan>
<tspan x="10" y="1850">      ├─┬ readable-stream@2.1.4 </tspan>
<tspan x="10" y="1866">      │ ├── buffer-shims@1.0.0 </tspan>
<tspan x="10" y="1882">      │ ├── core-util-is@1.0.2 </tspan>
<tspan x="10" y="1898">      │ ├── isarray@1.0.0 </tspan>
<tspan x="10" y="1914">      │ ├── process-nextick-args@1.0.7 </tspan>
<tspan x="10" y="1930">      │ ├── string_decoder@0.10.31 </tspan>
<tspan x="10" y="1946">      │ └── util-deprecate@1.0.2 </tspan>
<tspan x="10" y="1962">      └── uid-number@0.0.6</tspan>
</text>
</svg>
